<svg xmlns="http://www.w3.org/2000/svg" viewBox="0 0 768 768" role="img" aria-labelledby="title desc">
  <title id="title">شعار د. أحمد النور</title>
  <desc id="desc">شعار عيادة د. أحمد النور لطب وتجميل الأسنان</desc>
  <defs>
    <linearGradient id="g" x1="0" y1="0" x2="1" y2="1">
      <stop offset="0%" stop-color="#0B2A55"/>
      <stop offset="55%" stop-color="#0F76B8"/>
      <stop offset="100%" stop-color="#53B9EC"/>
    </linearGradient>
  </defs>

  <rect width="768" height="768" fill="none"/>

  <g transform="translate(130 96)">
    <path d="M126 120c0-58 50-102 122-102 27 0 51 6 72 17 24 13 44 13 68 0 22-11 47-17 74-17 72 0 122 44 122 102"
      fill="none" stroke="url(#g)" stroke-width="20" stroke-linecap="round"/>

    <path d="M56 208c28 22 65 34 111 37 86 6 171 4 266-4 50-5 95-17 134-39"
      fill="none" stroke="url(#g)" stroke-width="18" stroke-linecap="round"/>

    <path d="M182 186c0 70 18 138 38 184 10 22 38 20 48-3l20-52c9-23 41-23 50 0l20 52c10 23 38 25 48 3 20-46 38-114 38-184"
      fill="none" stroke="url(#g)" stroke-width="20" stroke-linecap="round" stroke-linejoin="round"/>

    <path d="M540 108l8 24 24 8-24 8-8 24-8-24-24-8 24-8z" fill="url(#g)"/>
  </g>

  <g transform="translate(384 520)">
    <text x="0" y="0" text-anchor="middle" direction="rtl" unicode-bidi="plaintext"
      font-family="Cairo, Arial, sans-serif" font-size="84" font-weight="800" fill="#0B2A55">أحمد النور</text>
    <line x1="-200" y1="48" x2="-150" y2="48" stroke="#0B2A55" stroke-width="4"/>
    <line x1="150" y1="48" x2="200" y2="48" stroke="#0B2A55" stroke-width="4"/>
    <text x="0" y="60" text-anchor="middle" direction="rtl" unicode-bidi="plaintext"
      font-family="Cairo, Arial, sans-serif" font-size="52" font-weight="500" fill="#4B5563">طب وتجميل الأسنان</text>
  </g>
</svg>
