<svg xmlns="http://www.w3.org/2000/svg" viewBox="0 0 900 600" fill="none">
  <defs>
    <linearGradient id="bg" x1="0" y1="0" x2="1" y2="1">
      <stop offset="0" stop-color="#F0F9FF"/>
      <stop offset="1" stop-color="#D9F99D"/>
    </linearGradient>
  </defs>
  <rect width="900" height="600" fill="url(#bg)"/>
  <path d="M330 210C330 160 383 120 450 120C517 120 570 160 570 210V275C570 360 522 430 450 470C378 430 330 360 330 275V210Z" fill="#0EA5E9"/>
  <path d="M450 180L466 220L510 224L477 253L487 295L450 273L413 295L423 253L390 224L434 220L450 180Z" fill="#fff"/>
  <path d="M610 165L620 190L648 193L626 210L633 238L610 224L587 238L594 210L572 193L600 190L610 165Z" fill="#84CC16"/>
  <text x="450" y="550" text-anchor="middle" fill="#0F172A" font-family="Cairo, Arial" font-size="44" font-weight="700">Teeth Cleaning</text>
</svg>
