<svg xmlns="http://www.w3.org/2000/svg" viewBox="0 0 64 64" fill="none">
  <rect width="64" height="64" rx="16" fill="#E8F7FF"/>
  <path d="M20 22C20 15.9 25.4 11 32 11C38.6 11 44 15.9 44 22V30C44 40.5 38.4 49.5 32 54C25.6 49.5 20 40.5 20 30V22Z" fill="#0EA5E9"/>
  <path d="M32 19L33.4 22.6L37.2 23L34.4 25.5L35.2 29.2L32 27.2L28.8 29.2L29.6 25.5L26.8 23L30.6 22.6L32 19Z" fill="#FFFFFF"/>
  <path d="M42 16L42.7 17.8L44.6 18L43.2 19.3L43.6 21.1L42 20.1L40.4 21.1L40.8 19.3L39.4 18L41.3 17.8L42 16Z" fill="#0EA5E9"/>
</svg>
